<svg aria-hidden="true" style="position: absolute; width: 0; height: 0; overflow: hidden;" version="1.1" xmlns="http://www.w3.org/2000/svg" xmlns:xlink="http://www.w3.org/1999/xlink">
<defs>
<symbol id="icon-mastercard" viewBox="0 0 32 32">
<path fill="#000" style="fill: var(--color1, #000)" d="M1.707 5.952h28.587c0.943 0 1.707 0.764 1.707 1.707v16.683c0 0.943-0.764 1.707-1.707 1.707h-28.587c-0.943 0-1.707-0.764-1.707-1.707v-16.683c0-0.943 0.764-1.707 1.707-1.707z"></path>
<path fill="#fff" style="fill: var(--color2, #fff)" d="M9.435 23.943v-1.060c0-0.407-0.247-0.672-0.654-0.672-0.213 0-0.442 0.071-0.601 0.299-0.124-0.195-0.299-0.299-0.565-0.299-0.201-0.009-0.394 0.084-0.512 0.247v-0.213h-0.336v1.696h0.336v-0.971c0-0.299 0.177-0.442 0.424-0.442s0.389 0.159 0.389 0.442v0.972h0.336v-0.972c0-0.299 0.177-0.442 0.424-0.442s0.389 0.159 0.389 0.442v0.972h0.37zM14.948 22.264h-0.619v-0.512h-0.335v0.512h-0.353v0.299h0.353v0.797c0 0.389 0.141 0.619 0.565 0.619 0.161-0.003 0.318-0.046 0.459-0.124l-0.106-0.299c-0.095 0.060-0.206 0.090-0.318 0.088-0.177 0-0.265-0.106-0.265-0.283v-0.812h0.619v-0.283l0-0.002zM18.094 22.211c-0.186-0.004-0.361 0.090-0.46 0.247v-0.213h-0.336v1.696h0.336v-0.953c0-0.283 0.141-0.46 0.371-0.46 0.078 0.003 0.155 0.015 0.23 0.035l0.106-0.318c-0.081-0.020-0.164-0.032-0.247-0.035zM13.34 22.388c-0.177-0.124-0.424-0.177-0.689-0.177-0.424 0-0.689 0.195-0.689 0.53 0 0.283 0.195 0.442 0.565 0.495l0.177 0.017c0.195 0.035 0.318 0.106 0.318 0.195 0 0.124-0.141 0.213-0.407 0.213-0.203 0.004-0.401-0.058-0.565-0.177l-0.177 0.265c0.247 0.177 0.548 0.213 0.725 0.213 0.495 0 0.76-0.23 0.76-0.548 0-0.299-0.213-0.442-0.583-0.495l-0.177-0.017c-0.159-0.017-0.299-0.071-0.299-0.177 0-0.124 0.141-0.213 0.336-0.213 0.213 0 0.424 0.088 0.53 0.141l0.174-0.267zM18.465 23.095c0 0.512 0.336 0.884 0.884 0.884 0.247 0 0.424-0.053 0.601-0.195l-0.177-0.265c-0.125 0.101-0.281 0.157-0.442 0.159-0.299 0-0.53-0.23-0.53-0.565s0.229-0.564 0.53-0.564c0.161 0.002 0.317 0.058 0.442 0.159l0.177-0.265c-0.177-0.141-0.353-0.195-0.601-0.195-0.53-0.035-0.884 0.336-0.884 0.848v-0.002zM16.097 22.211c-0.495 0-0.831 0.353-0.831 0.884s0.353 0.884 0.866 0.884c0.249 0.005 0.493-0.076 0.689-0.23l-0.177-0.247c-0.142 0.11-0.315 0.172-0.495 0.177-0.23 0-0.477-0.141-0.512-0.442h1.255v-0.141c0-0.53-0.318-0.884-0.795-0.884v-0zM16.079 22.53c0.247 0 0.424 0.159 0.442 0.424h-0.919c0.053-0.247 0.213-0.424 0.477-0.424zM11.502 23.095v-0.848h-0.336v0.213c-0.124-0.159-0.299-0.247-0.548-0.247-0.477 0-0.831 0.371-0.831 0.884s0.353 0.884 0.831 0.884c0.247 0 0.424-0.088 0.548-0.247v0.213h0.336v-0.851zM10.142 23.095c0-0.318 0.195-0.565 0.53-0.565 0.318 0 0.512 0.247 0.512 0.565 0 0.336-0.213 0.565-0.512 0.565-0.336 0.017-0.53-0.247-0.53-0.565zM23.201 22.211c-0.186-0.004-0.361 0.090-0.46 0.247v-0.213h-0.336v1.696h0.335v-0.953c0-0.283 0.141-0.46 0.371-0.46 0.078 0.003 0.155 0.015 0.23 0.035l0.106-0.318c-0.081-0.020-0.164-0.032-0.247-0.035h0zM21.894 23.095v-0.848h-0.336v0.213c-0.124-0.159-0.299-0.247-0.548-0.247-0.477 0-0.831 0.371-0.831 0.884s0.353 0.884 0.831 0.884c0.247 0 0.424-0.088 0.548-0.247v0.213h0.336v-0.851zM20.533 23.095c0-0.318 0.195-0.565 0.53-0.565 0.318 0 0.512 0.247 0.512 0.565 0 0.336-0.213 0.565-0.512 0.565-0.336 0.017-0.53-0.247-0.53-0.565zM25.304 23.095v-1.52h-0.336v0.884c-0.124-0.159-0.299-0.247-0.548-0.247-0.477 0-0.831 0.371-0.831 0.884s0.353 0.884 0.831 0.884c0.247 0 0.424-0.088 0.548-0.247v0.213h0.336v-0.849zM23.944 23.095c0-0.318 0.195-0.565 0.53-0.565 0.318 0 0.512 0.247 0.512 0.565 0 0.336-0.213 0.565-0.512 0.565-0.336 0.018-0.531-0.247-0.531-0.565h0z"></path>
<path fill="#ff5f00" style="fill: var(--color3, #ff5f00)" d="M12.951 9.382h6.132v10.002h-6.132v-10.002z"></path>
<path fill="#eb001b" style="fill: var(--color4, #eb001b)" d="M13.57 14.383c0-1.949 0.892-3.791 2.421-5.001-2.608-2.051-6.354-1.753-8.605 0.685s-2.251 6.195 0 8.633c2.251 2.437 5.997 2.735 8.605 0.685-1.529-1.209-2.42-3.052-2.421-5.001z"></path>
<path fill="#f79e1b" style="fill: var(--color5, #f79e1b)" d="M26.294 14.383c0.002 2.434-1.387 4.655-3.576 5.72s-4.793 0.785-6.707-0.719c1.529-1.209 2.421-3.052 2.421-5.001s-0.892-3.792-2.421-5.001c1.914-1.504 4.518-1.783 6.707-0.719s3.577 3.286 3.576 5.72z"></path>
</symbol>
<symbol id="icon-amex" viewBox="0 0 32 32">
<path fill="#26a6d1" style="fill: var(--color6, #26a6d1)" d="M2 4.5h28c1.104 0 2 0.896 2 2.001v19c0 1.104-0.896 2-2 2h-28c-1.105 0-2-0.896-2-2v-19c0-1.105 0.896-2.001 2-2.001z"></path>
<path fill="#fff" style="fill: var(--color2, #fff)" d="M5.16 12.5l-3.16 6.993h3.783l0.469-1.115h1.072l0.469 1.115h4.164v-0.851l0.371 0.851h2.154l0.371-0.869v0.869h8.66l1.053-1.086 0.986 1.086 4.448 0.009-3.17-3.486 3.17-3.516h-4.379l-1.025 1.066-0.955-1.066h-9.421l-0.809 1.805-0.828-1.805h-3.775v0.822l-0.42-0.822c0 0-3.228 0-3.228 0zM5.892 13.493h1.844l2.096 4.742v-4.742h2.020l1.619 3.4 1.492-3.4h2.010v5.018h-1.223l-0.010-3.932-1.783 3.932h-1.094l-1.793-3.932v3.932h-2.516l-0.477-1.125h-2.577l-0.476 1.124h-1.348c0 0 2.216-5.017 2.216-5.017zM18.092 13.493h4.973l1.521 1.643 1.57-1.643h1.521l-2.311 2.522 2.311 2.493h-1.59l-1.521-1.662-1.578 1.662h-4.896v-5.015zM6.789 14.342l-0.849 2.004h1.697l-0.848-2.004zM19.32 14.532v0.916h2.713v1.021h-2.713v1h3.043l1.414-1.473-1.354-1.465-3.103 0.001z"></path>
</symbol>
<symbol id="icon-visa" viewBox="0 0 32 32">
<path fill="#0e4595" style="fill: var(--color7, #0e4595)" d="M1.641 5.744h28.718c0.906 0 1.641 0.735 1.641 1.641v17.231c0 0.906-0.735 1.641-1.641 1.641h-28.718c-0.906 0-1.641-0.735-1.641-1.641v-17.231c0-0.906 0.735-1.641 1.641-1.641z"></path>
<path fill="#fff" style="fill: var(--color2, #fff)" d="M12.029 20.050l1.369-8.031h2.189l-1.37 8.031h-2.188zM22.126 12.192c-0.434-0.163-1.113-0.337-1.962-0.337-2.163 0-3.687 1.089-3.7 2.65-0.012 1.154 1.088 1.798 1.918 2.182 0.852 0.394 1.139 0.645 1.135 0.996-0.005 0.538-0.68 0.784-1.31 0.784-0.876 0-1.342-0.122-2.061-0.422l-0.282-0.128-0.307 1.798c0.511 0.224 1.457 0.418 2.438 0.428 2.301 0 3.795-1.077 3.812-2.744 0.008-0.914-0.575-1.609-1.838-2.182-0.765-0.371-1.234-0.619-1.229-0.996 0-0.334 0.397-0.691 1.254-0.691 0.716-0.011 1.234 0.145 1.638 0.308l0.196 0.093 0.297-1.741zM27.759 12.019h-1.692c-0.524 0-0.916 0.143-1.146 0.666l-3.251 7.36h2.299s0.376-0.99 0.461-1.207c0.251 0 2.484 0.003 2.804 0.003 0.065 0.281 0.266 1.203 0.266 1.203h2.031l-1.772-8.026zM25.075 17.205c0.181-0.463 0.872-2.245 0.872-2.245-0.013 0.021 0.18-0.465 0.29-0.767l0.148 0.692s0.419 1.917 0.507 2.319h-1.817zM10.17 12.019l-2.143 5.477-0.228-1.113c-0.399-1.283-1.642-2.673-3.032-3.369l1.96 7.024 2.316-0.003 3.446-8.016h-2.319z"></path>
<path fill="#f2ae14" style="fill: var(--color8, #f2ae14)" d="M6.027 12.019h-3.53l-0.028 0.167c2.746 0.665 4.563 2.271 5.318 4.201l-0.768-3.691c-0.133-0.508-0.517-0.66-0.992-0.678z"></path>
</symbol>
</defs>
</svg>
